<?xml version="1.0" encoding="iso-8859-1"?>
<!-- Generator: Adobe Illustrator 19.0.0, SVG Export Plug-In . SVG Version: 6.00 Build 0)  -->
<svg version="1.1" id="Layer_1" xmlns="http://www.w3.org/2000/svg" xmlns:xlink="http://www.w3.org/1999/xlink" x="0px" y="0px"
	 viewBox="0 0 511.999 511.999" style="enable-background:new 0 0 511.999 511.999;" xml:space="preserve">
<g>
	<g>
		<path d="M403.196,293.135H301.603c-5.77,0-10.449,4.678-10.449,10.449s4.679,10.449,10.449,10.449h101.592
			c5.771,0,10.449-4.678,10.449-10.449S408.966,293.135,403.196,293.135z"/>
	</g>
</g>
<g>
	<g>
		<path d="M173.12,300.024h-59.013c-5.77,0-10.449,4.678-10.449,10.449s4.679,10.449,10.449,10.449h59.013
			c5.77,0,10.449-4.678,10.449-10.449S178.89,300.024,173.12,300.024z"/>
	</g>
</g>
<g>
	<g>
		<path d="M210.254,364.214H180.75c-5.77,0-10.449,4.678-10.449,10.449s4.679,10.449,10.449,10.449h29.505
			c5.77,0,10.449-4.678,10.449-10.449S216.024,364.214,210.254,364.214z"/>
	</g>
</g>
<g>
	<g>
		<path d="M329.385,350.039h-29.506c-5.77,0-10.449,4.678-10.449,10.449c0,5.771,4.679,10.449,10.449,10.449h29.506
			c5.771,0,10.449-4.678,10.449-10.449C339.834,354.717,335.155,350.039,329.385,350.039z"/>
	</g>
</g>
<g>
	<g>
		<path d="M271.345,245.315h-41.219c-5.77,0-10.449,4.678-10.449,10.449c0,5.771,4.679,10.449,10.449,10.449h41.219
			c5.771,0,10.449-4.678,10.449-10.449C281.794,249.993,277.115,245.315,271.345,245.315z"/>
	</g>
</g>
<g>
	<g>
		<path d="M274.402,296.479c-1.954-1.943-4.639-3.062-7.387-3.062c-2.759,0-5.454,1.118-7.398,3.062
			c-1.943,1.944-3.051,4.639-3.051,7.387c0,2.748,1.108,5.444,3.051,7.387c1.944,1.943,4.639,3.062,7.398,3.062
			c2.748,0,5.433-1.118,7.387-3.062c1.942-1.944,3.051-4.639,3.051-7.387C277.453,301.119,276.344,298.423,274.402,296.479z"/>
	</g>
</g>
<g>
	<g>
		<path d="M393.742,164.489c-27.224-23.326-61.017-38.904-97.749-45.465c5.536-20.565,15.554-42.178,24.658-47.314l11.861-6.692
			c5.026-2.836,6.801-9.209,3.965-14.236l-13.384-23.72c-2.837-5.027-9.212-6.8-14.235-3.965l-11.861,6.692
			c-5.032,2.839-9.807,6.561-14.312,11.132V10.449C282.685,4.678,278.006,0,272.236,0H239.76c-5.77,0-10.449,4.678-10.449,10.449
			v22.507c-7.562-9.673-15.855-17.08-24.814-22.135l-14.561-8.215c-5.024-2.833-11.399-1.061-14.235,3.965l-16.43,29.12
			c-2.836,5.026-1.061,11.399,3.965,14.236l14.561,8.215c12.582,7.099,25.247,35.526,31.785,62.124
			c-34.245,7.168-65.698,22.262-91.325,44.222c-37.33,31.988-57.887,74.657-57.887,120.142c0,72.116,52.865,136.316,131.59,159.863
			c24.853,9.375,44.506,16.961,53.728,58.432c0.678,5.121,5.092,9.073,10.396,9.073c4.733,0,9.02-3.325,10.142-7.936
			c10.292-41.097,32.345-52.005,54.058-59.643c78.589-23.604,131.346-87.756,131.346-159.789
			C451.629,239.145,431.071,196.477,393.742,164.489z M282.684,77.176c7.258-14.251,15.52-24.074,24.582-29.187l2.761-1.557
			l3.114,5.519l-2.761,1.557c-12.595,7.107-21.653,23.715-27.696,39.216V77.176z M250.209,20.898h11.577v94.678
			c-1.926-0.048-3.855-0.08-5.789-0.08c-1.934,0-3.863,0.032-5.789,0.08V20.898z M188.066,39.941l-5.461-3.08l6.161-10.919
			l5.461,3.08c12.24,6.906,23.262,20.395,32.76,40.095c0.588,1.219,1.388,2.264,2.325,3.13v40.843
			C222.635,87.141,208.827,51.656,188.066,39.941z M313.794,424.549c-0.346,0.103-0.682,0.223-1.01,0.357
			c-21.231,7.534-42.172,18.675-56.224,45.44c-14.397-29.249-37.061-37.798-57.576-45.536c-0.234-0.088-0.471-0.168-0.712-0.239
			c-69.986-20.801-117.008-77.038-117.008-139.939c0-12.596,1.867-24.829,5.37-36.514h81.221c5.77,0,10.449-4.678,10.449-10.449
			c0-5.771-4.679-10.449-10.449-10.449H94.907c26.497-53.31,88.727-90.826,161.091-90.826c35.998,0,69.487,9.286,97.319,25.179
			h-61.799c-5.77,0-10.449,4.678-10.449,10.449c0,5.771,4.679,10.449,10.449,10.449h90.781c0.063,0,0.124-0.008,0.186-0.009
			c29.879,26.61,48.245,62.605,48.245,102.17C430.73,347.503,383.737,403.731,313.794,424.549z"/>
	</g>
</g>
<g>
</g>
<g>
</g>
<g>
</g>
<g>
</g>
<g>
</g>
<g>
</g>
<g>
</g>
<g>
</g>
<g>
</g>
<g>
</g>
<g>
</g>
<g>
</g>
<g>
</g>
<g>
</g>
<g>
</g>
</svg>
