<?xml version="1.0" encoding="utf-8"?>
<!-- Generator: Adobe Illustrator 16.0.2, SVG Export Plug-In . SVG Version: 6.00 Build 0)  -->
<!DOCTYPE svg PUBLIC "-//W3C//DTD SVG 1.1//EN" "http://www.w3.org/Graphics/SVG/1.1/DTD/svg11.dtd">
<svg version="1.1" id="Шар_1" xmlns="http://www.w3.org/2000/svg" xmlns:xlink="http://www.w3.org/1999/xlink" x="0px" y="0px"
	 width="342.5px" height="75px" viewBox="0 0 342.5 75" enable-background="new 0 0 342.5 75" xml:space="preserve">
<g>
	<g>
		<path fill="#2D7D2F" d="M137.159,22.282c-1.566,6.259-1.566,26.208,0,32.39c2.895,11.969,41.154,11.969,44.047,0
			c1.49-6.182,1.49-26.131,0-32.39C178.313,10.313,140.054,10.313,137.159,22.282z M172.444,53.107
			c-1.643,9.778-24.957,9.778-26.599,0c-1.018-6.337-1.018-22.922,0-29.182c1.642-9.857,24.956-9.857,26.599,0
			C173.539,30.185,173.539,46.77,172.444,53.107z"/>
		<path fill="#2D7D2F" d="M72.889,20.483v-0.848c3.391-4.237,10.943-6.011,19.264-6.011c8.247,0,16.801,2.235,18.11,7.013
			c0.464,1.695,0.694,3.16,0.694,4.625c0,5.006-1.771,8.013-7.397,10.172c8.476,2.465,10.249,6.935,10.249,13.252
			c0,1.927-0.308,3.931-0.847,6.089c-1.464,5.703-10.48,8.554-19.498,8.554c-9.093,0-18.109-2.93-19.573-8.71
			c-0.695-2.541-1.002-5.625-1.002-8.707V20.483z M92.384,16.938c-4.47,0-7.86,0.462-10.479,1.387v15.795h12.097
			c6.166-0.23,9.247-3.543,9.247-8.859c0-5.087-2.156-7.476-7.319-8.17C94.929,16.938,93.696,16.938,92.384,16.938z M91.845,37.438
			h-9.939v8.476c0,2.467,0.153,5.01,0.538,7.09c0.85,4.699,5.857,7.013,11.021,7.013c7.399,0,11.406-3.854,11.406-11.33
			c0-7.319-3.776-11.249-11.406-11.249h-0.077H91.845z"/>
		<path fill="#2D7D2F" d="M129.295,15.089c0,15.797,0,31.595,0,47.393h-9.016c0-16.183,0-32.366,0-48.548L129.295,15.089z"/>
		<path fill="#2D7D2F" d="M221.302,13.625v3.314H209.82c-0.387,0-0.771,0-1.077,0c-4.473,0-7.786,0.462-10.407,1.387v15.795h17.419
			v3.316h-17.419v25.044h-9.014V30.963V19.635c3.313-4.237,10.942-6.011,19.032-6.011c0.463,0,1.003,0,1.466,0H221.302z"/>
		<path fill="#2D7D2F" d="M259.292,13.625v3.314h-11.481c-0.388,0-0.771,0-1.078,0c-4.471,0-7.786,0.462-10.403,1.387v15.795h17.414
			v3.316h-17.414v8.476c0,2.541,0.23,5.087,0.536,7.244c0.772,4.469,6.012,6.78,11.022,6.78c4.082,0,8.168-0.693,11.172-2.234
			l2.467,2.927c-3.698,1.773-8.708,2.624-13.639,2.624c-9.095,0-18.111-2.854-19.573-8.402c-0.695-2.695-1.004-5.779-1.004-8.938
			V19.635c3.313-4.237,10.945-6.011,19.036-6.011c0.461,0,1.002,0,1.464,0H259.292z"/>
		<path fill="#2D7D2F" d="M305.602,30.963c0-3.16-0.383-6.24-1.078-8.938c-1.387-5.472-10.479-8.323-19.572-8.323
			c-7.553,0-15.026,1.926-18.186,5.933v42.846h9.016V47.182l8.122,0.072l10.063,15.228h10.324L294.12,47.224
			C304.523,44.682,305.602,39.209,305.602,30.963z M275.781,41.412V18.326c2.697-0.925,6.01-1.387,9.248-1.387
			c5.084,0,10.172,2.312,10.939,6.783c0.387,2.157,0.618,4.697,0.618,7.242c0,2.542-0.231,5.084-0.618,7.244
			C295.358,41.767,283.251,41.621,275.781,41.412z"/>
		<path fill="#2D7D2F" d="M321.016,45.838V17.709h-11.253v-3.237h11.253h20.342v3.237h-11.252v28.128v0.075v16.568h-9.09V45.913
			V45.838z"/>
	</g>
	<g>
		<path fill="#2D7D2F" d="M16.14,14.38c3.567-0.905,11.436-1.316,18.965-1.244c0.659-0.852,1.262-1.752,1.801-2.714
			c-1.14-0.024-2.313-0.036-3.516-0.036c-7.92,0-14.62,0.499-17.895,1.33C6.877,13.8,3.82,27.113,3.82,37.881
			c0,10.563,2.947,23.568,11.197,26.026c-0.943-1.536-1.829-3.137-2.614-4.799C3.519,49.806,4.765,17.13,16.14,14.38z"/>
		<path fill="#2D7D2F" d="M51.673,11.81c0.749,1.324,1.484,2.756,2.175,4.278c9.521,8.449,8.473,42.485-3.146,45.292
			c-2.818,0.672-8.239,1.058-14.059,1.163c-1.096,0.856-2.118,1.76-3.037,2.767c7.812-0.005,14.429-0.478,17.74-1.265
			c8.62-2.082,11.677-15.396,11.677-26.164C63.023,27.243,60.034,14.129,51.673,11.81z"/>
		<g>
			<path fill="#2D7D2F" d="M42.164,3.295c-3.076,20.155-25.495,21.44-29.538,35.521C8.986,51.488,17.011,63.2,24.113,71.679
				c-0.228-0.692-0.458-1.428-0.686-2.202c-0.841-2.879-1.648-6.349-1.801-10.155c-0.081-1.901,0.021-3.871,0.327-5.842
				c0.316-1.97,0.835-3.935,1.556-5.818c0.354-0.941,0.759-1.872,1.216-2.755c0.468-0.92,1.004-1.757,1.564-2.582
				c1.15-1.622,2.474-3.06,3.847-4.327c1.371-1.271,2.769-2.391,4.082-3.458c1.313-1.061,2.532-2.082,3.584-3.107
				c1.045-1.023,1.913-2.057,2.57-3.046c0.662-0.99,1.111-1.935,1.428-2.728c0.309-0.803,0.489-1.456,0.59-1.904
				c0.104-0.452,0.158-0.69,0.158-0.69s-0.045,0.244-0.125,0.696c-0.084,0.453-0.233,1.116-0.509,1.938
				c-0.283,0.817-0.689,1.793-1.321,2.827c-0.624,1.039-1.461,2.129-2.476,3.221c-1.023,1.081-2.21,2.171-3.475,3.292
				c-1.267,1.127-2.604,2.301-3.883,3.6c-1.283,1.299-2.494,2.738-3.514,4.328c-0.495,0.802-0.977,1.638-1.358,2.486
				c-0.405,0.878-0.752,1.767-1.056,2.683c-0.618,1.822-1.039,3.7-1.263,5.566c-0.217,1.872-0.243,3.728-0.098,5.516
				c0.28,3.576,1.171,6.846,2.09,9.59c0.441,1.313,0.887,2.506,1.303,3.574c4.308-17.388,24.716-14.799,27.823-33.501
				C57.912,19.488,42.164,3.295,42.164,3.295z"/>
		</g>
	</g>
</g>
</svg>
