<?xml version="1.0" encoding="iso-8859-1"?>
<!-- Generator: Adobe Illustrator 19.0.0, SVG Export Plug-In . SVG Version: 6.00 Build 0)  -->
<svg version="1.1" id="Capa_1" xmlns="http://www.w3.org/2000/svg" xmlns:xlink="http://www.w3.org/1999/xlink" x="0px" y="0px"
	 viewBox="0 0 502.08 502.08" style="enable-background:new 0 0 502.08 502.08;" xml:space="preserve">
<g>
	<g>
		<path d="M147.96,309.296l-15.88-1.952c-0.688,5.6-1.04,11.32-1.04,16.976c0,5.672,0.352,11.384,1.048,16.984l15.872-1.968
			c-0.608-4.944-0.92-10-0.92-15.016C147.04,319.312,147.352,314.256,147.96,309.296z"/>
	</g>
</g>
<g>
	<g>
		<path d="M456.52,404.32c-4.496,0-8.936,0.72-13.192,2.144l-3.64,1.208c-16.208,5.4-33.752,6.08-50.296,2.016
			c0.248-0.104,0.496-0.168,0.744-0.272l11.608-4.976c15.368-6.6,25.296-21.648,25.296-38.368c0-23.024-18.728-41.752-42.52-41.752
			c-4.496,0-8.936,0.72-13.192,2.144l-3.64,1.208c-18.512,6.168-38.776,6.176-57.304-0.008l-3.52-1.168
			c-4.32-1.44-8.832-2.176-13.408-2.176c-23.392,0-42.416,19.024-42.416,42.728c0,16.168,8.984,30.704,23.464,37.952l2.168,1.08
			c3.04,1.52,6.16,2.88,9.312,4.168c-15.744,3.352-32.256,2.544-47.592-2.576l-3.512-1.168c-4.336-1.448-8.848-2.184-13.424-2.184
			c-23.392,0-42.416,19.024-42.416,42.728c0,16.168,8.984,30.704,23.464,37.952l2.168,1.08c18.632,9.32,39.488,14.24,60.32,14.24
			c18.368,0,36.248-3.672,53.136-10.904l11.608-4.976c3.024-1.288,5.88-2.976,8.512-4.944c2.512,2.096,5.232,3.992,8.248,5.504
			l2.168,1.08c18.64,9.32,39.496,14.24,60.328,14.24c18.368,0,36.248-3.672,53.136-10.904l11.608-4.976
			c15.376-6.6,25.304-21.648,25.304-38.368C499.04,423.048,480.312,404.32,456.52,404.32z M328.136,467.072
			c-1.464,1.032-3.016,1.936-4.696,2.664l-11.608,4.976c-31.784,13.608-69.088,12.504-100.016-2.952l-2.168-1.08
			c-9.008-4.512-14.608-13.56-14.608-23.944c0-14.568,11.848-26.416,26.416-26.416c2.848,0,5.664,0.456,8.36,1.36l3.512,1.168
			c21.792,7.264,45.648,7.256,67.408,0.008l3.64-1.208c2.632-0.88,5.368-1.328,8.92-1.328c5.72,0,11.192,1.896,15.64,5.312
			c-3.648,6.304-5.896,13.552-5.896,21.416C323.04,454.224,324.896,461.032,328.136,467.072z M283.808,391.76l-2.16-1.08
			c-9.008-4.512-14.608-13.56-14.608-23.944c0-14.568,11.848-26.416,26.416-26.416c2.848,0,5.664,0.456,8.344,1.352l3.528,1.168
			c21.792,7.264,45.648,7.256,67.408,0.008l3.64-1.208c2.632-0.872,5.368-1.32,8.92-1.32c14.192,0,25.744,11.552,25.744,25.752
			c0,10.312-6.128,19.592-15.608,23.664l-11.608,4.976C352.048,408.312,314.736,407.224,283.808,391.76z M467.432,469.736
			l-11.608,4.976c-31.784,13.608-69.088,12.504-100.016-2.952l-2.168-1.08c-9-4.512-14.6-13.56-14.6-23.944
			c0-14.568,11.848-26.416,26.416-26.416c2.848,0,5.664,0.456,8.344,1.352l3.528,1.168c21.792,7.264,45.648,7.256,67.408,0.008
			l3.64-1.208c2.632-0.872,5.368-1.32,8.92-1.32c14.192,0,25.744,11.552,25.744,25.752
			C483.04,456.384,476.912,465.664,467.432,469.736z"/>
	</g>
</g>
<g>
	<g>
		<path d="M426.056,443.4c-9.888,1.216-20.144,1.216-30.032,0l-1.968,15.872c5.6,0.696,11.312,1.048,16.984,1.048
			s11.384-0.352,16.984-1.048L426.056,443.4z"/>
	</g>
</g>
<g>
	<g>
		<path d="M354.056,363.4c-9.888,1.216-20.144,1.216-30.032,0l-1.968,15.872c5.6,0.696,11.312,1.048,16.984,1.048
			s11.384-0.352,16.984-1.048L354.056,363.4z"/>
	</g>
</g>
<g>
	<g>
		<path d="M282.056,443.4c-9.888,1.216-20.144,1.216-30.032,0l-1.968,15.872c5.6,0.696,11.312,1.048,16.984,1.048
			s11.384-0.352,16.984-1.048L282.056,443.4z"/>
	</g>
</g>
<g>
	<g>
		<path d="M183.688,352.976c-3.088-9.256-4.648-18.896-4.648-28.656s1.56-19.4,4.648-28.648l1.176-3.528
			c1.448-4.328,2.176-8.848,2.176-13.408c0-14.824-7.664-27.848-19.296-35.432l0.392-0.056c-5.424-40.296-18.16-78.752-37.84-114.32
			c-1.64-9.744-3.888-19.384-6.904-28.816L150.696,0L84.352,22.12L68.176,86.816l-5.008,2.504
			C26.072,107.856,3.04,145.128,3.04,186.584c0,25.424,8.664,49.512,24.584,68.896C11.8,274.288,3.04,298.04,3.04,322.68
			c0,28.504,11.824,55.584,32.064,75.112c0.664,45.504,31.816,84.248,76.296,94.512l42.336,9.776l3.992-27.928
			c3.184-22.28,5.808-44.92,7.848-67.336c12.736-7.216,21.464-20.864,21.464-37.016c0-4.496-0.72-8.936-2.144-13.2L183.688,352.976z
			 M130.128,199.544c1.6-9.08,2.528-18.24,2.904-27.424c8.312,20.864,14.296,42.552,17.912,64.864
			c-2.176-0.336-4.36-0.664-6.632-0.664c-7.848,0-15.296,2.152-21.728,5.992L130.128,199.544z M115,476.704
			c-32.52-7.496-56.52-33.184-62.488-64.928l9.872,7.056l9.304-13.016L56.08,394.664c-23.192-16.568-37.04-43.488-37.04-71.984
			c0-20.224,6.992-39.728,19.624-55.416l6.72,6.72l11.312-11.312L46.2,252.176c-17.512-17.52-27.16-40.808-27.16-65.592
			c0-35.36,19.648-67.144,51.28-82.952l11.592-5.808L97.736,34.52l29.656-9.88l-20.704,75.912l0.768,2.296
			c10.048,30.144,12.44,62.608,6.92,93.904l-9.44,53.504c-3.912,22.144-5.896,44.768-5.896,67.232v5.384
			c0,54.216,11.744,108.448,33.864,157.968L115,476.704z M142.944,463.648c-7.544-18.432-13.688-37.44-18.2-56.84
			c6.152,3.488,13.16,5.52,20.544,5.52c1.256,0,2.432-0.264,3.656-0.368C147.296,429.192,145.288,446.48,142.944,463.648z
			 M168.512,358.032l1.208,3.616c0.872,2.632,1.32,5.376,1.32,8.92c0,14.2-11.552,25.752-25.744,25.752
			c-10.32,0-19.608-6.128-23.664-15.6l-2.856-6.672c-2.384-16.96-3.736-34.064-3.736-51.176v-5.384
			c0-14.696,0.952-29.448,2.704-44.08l0.496-1.184c0.432-1.056,0.848-2.104,1.352-3.12l1.096-2.184
			c4.504-9.008,13.552-14.6,23.936-14.6c14.568,0,26.416,11.848,26.416,26.416c0,2.84-0.456,5.656-1.352,8.352l-1.176,3.52
			c-3.632,10.888-5.472,22.224-5.472,33.712C163.04,335.808,164.88,347.144,168.512,358.032z"/>
	</g>
</g>
<g>
</g>
<g>
</g>
<g>
</g>
<g>
</g>
<g>
</g>
<g>
</g>
<g>
</g>
<g>
</g>
<g>
</g>
<g>
</g>
<g>
</g>
<g>
</g>
<g>
</g>
<g>
</g>
<g>
</g>
</svg>
