<svg height="512pt" viewBox="-62 0 512 512" width="512pt" xmlns="http://www.w3.org/2000/svg"><path d="m193.265625 136.691406c-31.5625 0-57.238281 25.675782-57.238281 57.234375 0 31.558594 25.675781 57.234375 57.238281 57.234375 7.015625 0 13.875-1.253906 20.378906-3.734375 3.871094-1.476562 5.8125-5.808593 4.335938-9.679687-1.472657-3.871094-5.808594-5.8125-9.675781-4.339844-4.796876 1.828125-9.855469 2.753906-15.039063 2.753906-23.289063 0-42.238281-18.945312-42.238281-42.234375 0-23.289062 18.949218-42.234375 42.238281-42.234375s42.234375 18.945313 42.234375 42.234375c0 7.710938-2.09375 15.25-6.058594 21.808594-2.140625 3.542969-1.003906 8.15625 2.542969 10.296875 3.542969 2.144531 8.152344 1.003906 10.296875-2.539062 5.375-8.898438 8.21875-19.121094 8.21875-29.566407 0-31.558593-25.675781-57.234375-57.234375-57.234375zm0 0"/><path d="m387.851562 193.925781c0-10.066406-7.945312-18.96875-22.375-25.066406-5.285156-2.234375-11.289062-4.039063-17.769531-5.375 20.710938-13.90625 30.886719-30.429687 25.492188-43.515625-3.6875-8.929688-13.8125-14.117188-28.515625-14.605469-6.359375-.210937-13.4375.453125-20.859375 1.90625 3.808593-5.710937 6.902343-11.425781 9.132812-16.921875 5.890625-14.515625 5.214844-26.429687-1.902343-33.546875-7.121094-7.121093-19.035157-7.796875-33.550782-1.90625-5.363281 2.175781-10.929687 5.175781-16.503906 8.859375 4.300781-22.429687 1.605469-42.976562-12.605469-48.886718-13.171875-5.480469-29.875 4.847656-43.910156 25.84375-1.34375-6.699219-3.191406-12.894532-5.492187-18.335938-6.097657-14.429688-15-22.375-25.066407-22.375-10.066406 0-18.96875 7.945312-25.070312 22.375-2.25 5.332031-4.066407 11.390625-5.40625 17.933594-12.8125-18.894532-29.253907-31.523438-43.480469-25.652344-14.351562 5.921875-17.039062 26.746094-12.644531 49.410156-5.730469-3.824218-11.464844-6.933594-16.976563-9.171875-14.519531-5.890625-26.433594-5.210937-33.550781 1.90625-7.117187 7.117188-7.792969 19.03125-1.902344 33.546875 2.175781 5.363282 5.179688 10.933594 8.859375 16.507813-22.429687-4.300781-42.976562-1.609375-48.886718 12.605469-5.949219 14.300781 6.914062 30.957031 26.015624 43.875-6.765624 1.347656-13.023437 3.203124-18.507812 5.523437-14.429688 6.097656-22.375 15-22.375 25.066406 0 10.066407 7.945312 18.972657 22.375 25.070313 5.332031 2.253906 11.390625 4.066406 17.933594 5.40625-18.898438 12.816406-30.941406 29.027344-25.652344 43.480468 8.03125 21.953126 42.9375 13.914063 49.402344 12.652344-3.820313 5.730469-6.925782 11.457032-9.164063 16.96875-5.890625 14.515625-5.300781 26.519532 1.90625 33.550782 14.351563 14 44.476563-3.273438 50.050781-6.953126-4.300781 22.425782-1.816406 43.507813 12.605469 48.882813 16.132813 6.015625 31.046875-8.292969 41.285157-22.285156v42.273437c-17.886719-11.578125-35.890626-13.253906-45.9375-3.207031-6.722657 6.722656-8.34375 17.199219-4.566407 29.5 3.277344 10.671875 10.398438 21.863281 20.046875 31.511719 9.363282 9.363281 20.171875 16.300781 30.457032 19.695312v8.34375c0 18.296875 14.886718 33.183594 33.183593 33.183594 10.375 0 19.972657-4.75 26.328125-13.03125 2.523438-3.285156 1.902344-7.992188-1.382812-10.515625-3.285156-2.519531-7.992188-1.902344-10.515625 1.382813-3.496094 4.550781-8.753907 7.164062-14.429688 7.164062-10.027343 0-18.183593-8.15625-18.183593-18.183594v-101.257812c5.210937 6.707031 11.433593 10.296875 18.183593 10.296875s12.972657-3.589844 18.183594-10.296875v27.613281c-.023437.023437-.050781.050781-.074219.074219-21.804687 21.804687-28.671875 48.25-15.480468 61.011718 18.382812 17.789063 46.710937-1.179687 61.011718-15.480468 9.652344-9.648438 16.769532-20.839844 20.046875-31.511719 3.777344-12.300781 2.15625-22.78125-4.566406-29.5-10.078125-10.082031-28.148437-8.3125-45.933594 3.191406v-41.363281c10.769531 14.621094 26.253907 27.203125 40.773438 21.601562 14.53125-5.601562 17.074219-26.710937 12.652343-49.402343 5.726563 3.820312 33.769532 23.714843 50.515626 7.261719 7.183593-7.058594 7.796874-19.035157 1.90625-33.550782-2.167969-5.34375-5.160157-10.890625-8.820313-16.445312 6.390625 1.242187 39.042969 11.027344 48.84375-12.664063 3.691406-8.917969.226563-19.730469-9.804687-30.460937-4.351563-4.65625-9.835938-9.203125-16.125-13.429688 6.730468-1.347656 12.960937-3.199218 18.425781-5.507812 14.425781-6.097656 22.371093-15.003906 22.371093-25.070313zm-125.410156 206.445313c9.601563 8.242187-7.648437 31.964844-15.480468 39.800781-7.835938 7.832031-31.542969 22.695313-39.800782 15.480469-5.40625-4.722656-1.644531-22.675782 15.480469-39.800782 12.414063-12.410156 31.273437-22.796874 39.800781-15.480468zm96.886719-274.679688c1.210937 2.929688-1.449219 8.523438-6.773437 14.246094-7.050782 7.574219-17.996094 14.96875-30.816407 20.828125-.714843-.007813-22.691406 1.050781-31.855469 3.074219-1.789062-5.734375-4.082031-11.253906-6.820312-16.503906 7.910156-5.050782 23.78125-19.410157 24.078125-19.710938 28-10.550781 49.605469-8.199219 52.1875-1.933594zm-166.0625 154.421875c-47.523437 0-86.1875-38.664062-86.1875-86.1875 0-47.523437 38.664063-86.183593 86.1875-86.183593 47.519531 0 86.183594 38.660156 86.183594 86.183593 0 47.523438-38.664063 86.1875-86.183594 86.1875zm127.179687-212.707031c5.121094 5.117188-2.160156 27.878906-24.800781 50.519531-6.546875 6.546875-13.539062 12.214844-20.476562 16.660157-6.109375-8.40625-13.476563-15.84375-21.824219-22.023438 4.425781-6.890625 10.0625-13.832031 16.585938-20.355469 22.640624-22.636719 45.398437-29.921875 50.515624-24.800781zm-57.8125-38.6875c6.339844 2.351562 8.503907 23.789062-1.789062 51.394531-.507812.492188-15.15625 16.609375-20.179688 24.441407-5.265624-2.804688-10.800781-5.15625-16.566406-7.003907 1.96875-9.058593 3-30.605469 2.992188-31.257812 0 0 19.539062-43.511719 35.542968-37.574219zm-79.960937-.503906c4.125-9.753906 8.640625-13.214844 11.253906-13.214844s7.128907 3.460938 11.253907 13.214844c4.46875 10.574218 6.929687 24.796875 6.929687 40.042968 0 9.082032-.898437 17.867188-2.59375 25.796876-5.292969-.859376-10.71875-1.3125-16.25-1.3125-5.085937 0-10.085937.378906-14.972656 1.109374-1.664063-7.878906-2.550781-16.625-2.550781-25.59375 0-15.25 2.460937-29.46875 6.929687-40.042968zm-56.980469.308594c6.238282-2.578126 22.835938 10.8125 35.074219 37.609374-.011719.707032.988281 22.074219 2.898437 31.027344-5.847656 1.792969-11.46875 4.101563-16.8125 6.871094-4.976562-7.660156-18.921874-23.015625-19.21875-23.308594-10.5625-28.027344-8.257812-49.59375-1.941406-52.199218zm-58.285156 38.882812c5.121094-5.121094 27.875 2.164062 50.519531 24.800781 6.285157 6.289063 11.785157 13.015625 16.15625 19.699219-8.527343 6.171875-16.058593 13.632812-22.300781 22.101562-6.636719-4.351562-13.304688-9.816406-19.574219-16.082031-22.640625-22.640625-29.921875-45.402343-24.800781-50.519531zm-38.6875 57.8125c2.59375-6.238281 23.789062-8.503906 51.390625 1.792969.496094.507812 16.105469 14.746093 23.6875 19.695312-2.839844 5.355469-5.214844 10.996094-7.066406 16.867188-8.839844-1.851563-29.316407-2.820313-29.738281-2.816407-27.265626-12.34375-40.882813-29.265624-38.273438-35.539062zm-13.71875 68.707031c0-2.613281 3.460938-7.128906 13.214844-11.25 10.570312-4.472656 24.792968-6.933593 40.042968-6.933593 8.792969 0 17.316407.839843 25.046876 2.433593-.804688 5.132813-1.226563 10.394531-1.226563 15.75 0 5.359375.421875 10.621094 1.230469 15.753907-7.730469 1.59375-16.253906 2.429687-25.050782 2.429687-15.25 0-29.472656-2.460937-40.042968-6.929687-9.753906-4.121094-13.214844-8.640626-13.214844-11.253907zm52.40625 126.523438c-5.121094-5.121094 2.160156-27.878907 24.800781-50.519531 2.929688-2.929688 3.554688-6.96875.628907-9.898438-4.277344-4.273438-11.820313-.109375-12.113282.1875-30.109375 11.371094-49.949218 7.394531-52.199218 1.945312-2.578126-6.25 10.808593-22.839843 37.605468-35.074218.710938.007812 21.765625-.957032 30.605469-2.808594 6.613281 20.988281 19.898437 39.039062 37.351563 51.667969-4.363282 6.679687-9.855469 13.390625-16.164063 19.695312-22.640625 22.640625-45.398437 29.921875-50.515625 24.804688zm57.8125 38.6875c-6.242188-2.597657-8.503906-23.792969 1.789062-51.398438.507813-.492187 14.875-16.257812 19.84375-23.914062 5.347657 2.769531 10.96875 5.078125 16.816407 6.867187-1.910157 8.957032-2.914063 29.742188-2.910157 30.160156-13.253906 29.328126-30.089843 40.546876-35.539062 38.285157zm15.675781 81.035156c-7.835937-7.835937-13.78125-17.058594-16.316406-25.308594-2.007813-6.542969-1.695313-11.960937.835937-14.492187 5.03125-5.035156 20.421876-1.472656 35.328126 11.34375v42.667968c-6.679688-3.070312-13.667969-8.03125-19.847657-14.210937zm64.285157-80.535156c-4.125 9.753906-8.640626 13.21875-11.253907 13.21875s-7.128906-3.460938-11.253906-13.21875c-4.46875-10.570313-6.929687-24.792969-6.929687-40.042969 0-9 .882812-17.714844 2.550781-25.589844 4.886719.726563 9.882812 1.109375 14.96875 1.109375 5.535156 0 10.960937-.453125 16.257812-1.3125 1.695313 7.921875 2.589844 16.699219 2.589844 25.792969 0 15.25-2.460937 29.472656-6.929687 40.042969zm56.980468-.304688c-.519531.214844-16.769531 5.355469-34.984375-37.402343l-.089843.042968c.011718-.792968-1.015626-22.617187-2.980469-31.671875 5.761719-1.847656 11.296875-4.199219 16.5625-7 5.023437 7.832031 19.253906 23.535157 19.550781 23.828125 11.371094 30.109375 7.398438 49.953125 1.941406 52.203125zm58.289063-38.882812c-5.121094 5.117187-27.878907-2.164063-50.519531-24.804688-6.511719-6.507812-12.152344-13.457031-16.582032-20.355469 8.347656-6.179687 15.714844-13.617187 21.824219-22.023437 6.921875 4.445313 13.980469 10.171875 20.472656 16.664063 22.640625 22.640624 29.921875 45.398437 24.804688 50.519531zm38.6875-57.8125c-2.574219 6.179687-23.816407 8.492187-51.394531-1.789063-.496094-.511718-16.773438-15.3125-24.667969-20.347656 2.730469-5.246094 5.019531-10.761719 6.808593-16.492188 9.171876 2.023438 30.558594 3.09375 30.980469 3.089844 27.253907 12.339844 40.871094 29.285156 38.273438 35.539063zm-39.542969-50.527344c-9.285156 0-18.261719-.9375-26.324219-2.710937.777344-5.046876 1.179688-10.210938 1.179688-15.472657s-.402344-10.429687-1.179688-15.476562c8.054688-1.769531 17.015625-2.707031 26.328125-2.707031 15.246094 0 29.46875 2.460937 40.039063 6.933593 9.757812 4.121094 13.21875 8.636719 13.21875 11.25s-3.460938 7.132813-13.21875 11.253907c-10.570313 4.46875-24.792969 6.929687-40.042969 6.929687zm0 0"/></svg>