<svg xmlns="http://www.w3.org/2000/svg" width="342.5" height="75" viewBox="0 0 342.5 75">
    <g fill="#2D7D2F">
        <path d="M137.159 22.282c-1.566 6.259-1.566 26.208 0 32.39 2.895 11.969 41.154 11.969 44.047 0 1.49-6.182 1.49-26.131 0-32.39-2.893-11.969-41.152-11.969-44.047 0zm35.285 30.825c-1.643 9.778-24.957 9.778-26.599 0-1.018-6.337-1.018-22.922 0-29.182 1.642-9.857 24.956-9.857 26.599 0 1.095 6.26 1.095 22.845 0 29.182z"/>
        <path d="M72.889 20.483v-.848c3.391-4.237 10.943-6.011 19.264-6.011 8.247 0 16.801 2.235 18.11 7.013.464 1.695.694 3.16.694 4.625 0 5.006-1.771 8.013-7.397 10.172 8.476 2.465 10.249 6.935 10.249 13.252 0 1.927-.308 3.931-.847 6.089-1.464 5.703-10.48 8.554-19.498 8.554-9.093 0-18.109-2.93-19.573-8.71-.695-2.541-1.002-5.625-1.002-8.707V20.483zm19.495-3.545c-4.47 0-7.86.462-10.479 1.387V34.12h12.097c6.166-.23 9.247-3.543 9.247-8.859 0-5.087-2.156-7.476-7.319-8.17-1.001-.153-2.234-.153-3.546-.153zm-.539 20.5h-9.939v8.476c0 2.467.153 5.01.538 7.09.85 4.699 5.857 7.013 11.021 7.013 7.399 0 11.406-3.854 11.406-11.33 0-7.319-3.776-11.249-11.406-11.249H91.845z"/>
        <path d="M129.295 15.089v47.393h-9.016V13.934l9.016 1.155z"/>
        <path d="M221.302 13.625v3.314h-12.559c-4.473 0-7.786.462-10.407 1.387v15.795h17.419v3.316h-17.419v25.044h-9.014V19.635c3.313-4.237 10.942-6.011 19.032-6.011H221.302z"/>
        <path d="M259.292 13.625v3.314h-12.559c-4.471 0-7.786.462-10.403 1.387v15.795h17.414v3.316H236.33v8.476c0 2.541.23 5.087.536 7.244.772 4.469 6.012 6.78 11.022 6.78 4.082 0 8.168-.693 11.172-2.234l2.467 2.927c-3.698 1.773-8.708 2.624-13.639 2.624-9.095 0-18.111-2.854-19.573-8.402-.695-2.695-1.004-5.779-1.004-8.938V19.635c3.313-4.237 10.945-6.011 19.036-6.011h12.945z"/>
        <path d="M305.602 30.963c0-3.16-.383-6.24-1.078-8.938-1.387-5.472-10.479-8.323-19.572-8.323-7.553 0-15.026 1.926-18.186 5.933v42.846h9.016V47.182l8.122.072 10.063 15.228h10.324L294.12 47.224c10.403-2.542 11.482-8.015 11.482-16.261zm-29.821 10.449V18.326c2.697-.925 6.01-1.387 9.248-1.387 5.084 0 10.172 2.312 10.939 6.783.387 2.157.618 4.697.618 7.242 0 2.542-.231 5.084-.618 7.244-.61 3.559-12.717 3.413-20.187 3.204z"/>
        <path d="M321.016 45.838V17.709h-11.253v-3.237h31.595v3.237h-11.252V62.48h-9.09V45.838z"/>
    </g>
    <path fill="#2D7D2F" d="M16.14 14.38c3.567-.905 11.436-1.316 18.965-1.244a22.021 22.021 0 0 0 1.801-2.714c-1.14-.024-2.313-.036-3.516-.036-7.92 0-14.62.499-17.895 1.33C6.877 13.8 3.82 27.113 3.82 37.881c0 10.563 2.947 23.568 11.197 26.026a50.053 50.053 0 0 1-2.614-4.799C3.519 49.806 4.765 17.13 16.14 14.38z"/>
    <path fill="#2D7D2F" d="M51.673 11.81a54.278 54.278 0 0 1 2.175 4.278c9.521 8.449 8.473 42.485-3.146 45.292-2.818.672-8.239 1.058-14.059 1.163-1.096.856-2.118 1.76-3.037 2.767 7.812-.005 14.429-.478 17.74-1.265 8.62-2.082 11.677-15.396 11.677-26.164 0-10.638-2.989-23.752-11.35-26.071z"/>
    <path fill="#2D7D2F" d="M42.164 3.295c-3.076 20.155-25.495 21.44-29.538 35.521-3.64 12.672 4.385 24.384 11.487 32.863a72.658 72.658 0 0 1-.686-2.202c-.841-2.879-1.648-6.349-1.801-10.155a29.904 29.904 0 0 1 .327-5.842 29.3 29.3 0 0 1 1.556-5.818c.354-.941.759-1.872 1.216-2.755.468-.92 1.004-1.757 1.564-2.582 1.15-1.622 2.474-3.06 3.847-4.327 1.371-1.271 2.769-2.391 4.082-3.458 1.313-1.061 2.532-2.082 3.584-3.107 1.045-1.023 1.913-2.057 2.57-3.046a14.69 14.69 0 0 0 1.428-2.728c.309-.803.489-1.456.59-1.904l.158-.69s-.045.244-.125.696a14.235 14.235 0 0 1-1.83 4.765c-.624 1.039-1.461 2.129-2.476 3.221-1.023 1.081-2.21 2.171-3.475 3.292-1.267 1.127-2.604 2.301-3.883 3.6-1.283 1.299-2.494 2.738-3.514 4.328-.495.802-.977 1.638-1.358 2.486a25.703 25.703 0 0 0-1.056 2.683 27.635 27.635 0 0 0-1.263 5.566 28.21 28.21 0 0 0-.098 5.516c.28 3.576 1.171 6.846 2.09 9.59a79.658 79.658 0 0 0 1.303 3.574c4.308-17.388 24.716-14.799 27.823-33.501C57.912 19.488 42.164 3.295 42.164 3.295z"/>
</svg>
